<mxfile host="drawio-plugin" modified="2024-03-15T14:13:55.754Z" agent="5.0 (Windows NT 10.0; Win64; x64) AppleWebKit/537.36 (KHTML, like Gecko) Chrome/111.0.0.0 Safari/537.36" etag="d70JoAfaNpHL8Xt40xvA" version="20.5.3" type="embed"><diagram id="23iRSUPoRavnBvh4doch" name="Page-1"><mxGraphModel dx="237" dy="341" grid="1" gridSize="10" guides="1" tooltips="1" connect="1" arrows="1" fold="1" page="1" pageScale="1" pageWidth="827" pageHeight="1169" math="0" shadow="0"><root><mxCell id="0"/><mxCell id="1" parent="0"/><mxCell id="2" value="&lt;p style=&quot;margin:0px;margin-top:4px;text-align:center;&quot;&gt;&lt;i&gt;&amp;lt;&amp;lt;Interface&amp;gt;&amp;gt;&lt;/i&gt;&lt;br&gt;&lt;b&gt;UnitPrototype&lt;/b&gt;&lt;/p&gt;&lt;hr size=&quot;1&quot;&gt;&lt;p style=&quot;margin:0px;margin-left:4px;&quot;&gt;&lt;span style=&quot;background-color: initial;&quot;&gt;+ doClone(): Unit&lt;/span&gt;&lt;/p&gt;" style="verticalAlign=top;align=left;overflow=fill;fontSize=12;fontFamily=Helvetica;html=1;" parent="1" vertex="1"><mxGeometry x="575" y="130" width="190" height="70" as="geometry"/></mxCell><mxCell id="3" value="Unit" style="swimlane;fontStyle=3;align=center;verticalAlign=top;childLayout=stackLayout;horizontal=1;startSize=26;horizontalStack=0;resizeParent=1;resizeParentMax=0;resizeLast=0;collapsible=1;marginBottom=0;" parent="1" vertex="1"><mxGeometry x="590" y="360" width="160" height="130" as="geometry"/></mxCell><mxCell id="4" value="- weapon: String&#10;- pointOfLife: Integer&#10;- equipment: List&lt;String&gt;" style="text;strokeColor=none;fillColor=none;align=left;verticalAlign=top;spacingLeft=4;spacingRight=4;overflow=hidden;rotatable=0;points=[[0,0.5],[1,0.5]];portConstraint=eastwest;" parent="3" vertex="1"><mxGeometry y="26" width="160" height="54" as="geometry"/></mxCell><mxCell id="5" value="" style="line;strokeWidth=1;fillColor=none;align=left;verticalAlign=middle;spacingTop=-1;spacingLeft=3;spacingRight=3;rotatable=0;labelPosition=right;points=[];portConstraint=eastwest;strokeColor=inherit;" parent="3" vertex="1"><mxGeometry y="80" width="160" height="8" as="geometry"/></mxCell><mxCell id="6" value="# Unit(unit: Unit): Unit&#10;+ doClone(): Unit" style="text;strokeColor=none;fillColor=none;align=left;verticalAlign=top;spacingLeft=4;spacingRight=4;overflow=hidden;rotatable=0;points=[[0,0.5],[1,0.5]];portConstraint=eastwest;" parent="3" vertex="1"><mxGeometry y="88" width="160" height="42" as="geometry"/></mxCell><mxCell id="7" value="Archer" style="swimlane;fontStyle=1;align=center;verticalAlign=top;childLayout=stackLayout;horizontal=1;startSize=26;horizontalStack=0;resizeParent=1;resizeParentMax=0;resizeLast=0;collapsible=1;marginBottom=0;" parent="1" vertex="1"><mxGeometry x="40" y="280" width="440" height="80" as="geometry"/></mxCell><mxCell id="10" value="- Archer(unit: Unit): Archer&#10;+ Archer(weapon: String, points: int, archerEquipment: List&lt;String&gt;): Archer&#10;+ doClone(): Archer" style="text;strokeColor=none;fillColor=none;align=left;verticalAlign=top;spacingLeft=4;spacingRight=4;overflow=hidden;rotatable=0;points=[[0,0.5],[1,0.5]];portConstraint=eastwest;" parent="7" vertex="1"><mxGeometry y="26" width="440" height="54" as="geometry"/></mxCell><mxCell id="15" value="" style="endArrow=block;dashed=1;endFill=0;endSize=12;html=1;rounded=0;exitX=0.5;exitY=0;exitDx=0;exitDy=0;" parent="1" target="2" edge="1" source="3"><mxGeometry width="160" relative="1" as="geometry"><mxPoint x="360" y="133" as="sourcePoint"/><mxPoint x="490" y="260" as="targetPoint"/></mxGeometry></mxCell><mxCell id="19" value="Knight" style="swimlane;fontStyle=1;align=center;verticalAlign=top;childLayout=stackLayout;horizontal=1;startSize=26;horizontalStack=0;resizeParent=1;resizeParentMax=0;resizeLast=0;collapsible=1;marginBottom=0;" vertex="1" parent="1"><mxGeometry x="40" y="400" width="440" height="80" as="geometry"/></mxCell><mxCell id="20" value="- Knight(unit: Unit): Knight&#10;+ Knight(weapon: String, points: int, knightEquipment: List&lt;String&gt;): Knight&#10;+ doClone(): Knight" style="text;strokeColor=none;fillColor=none;align=left;verticalAlign=top;spacingLeft=4;spacingRight=4;overflow=hidden;rotatable=0;points=[[0,0.5],[1,0.5]];portConstraint=eastwest;" vertex="1" parent="19"><mxGeometry y="26" width="440" height="54" as="geometry"/></mxCell><mxCell id="21" value="Warrior" style="swimlane;fontStyle=1;align=center;verticalAlign=top;childLayout=stackLayout;horizontal=1;startSize=26;horizontalStack=0;resizeParent=1;resizeParentMax=0;resizeLast=0;collapsible=1;marginBottom=0;" vertex="1" parent="1"><mxGeometry x="40" y="520" width="440" height="80" as="geometry"/></mxCell><mxCell id="22" value="- Warrior(unit: Unit): Warrior&#10;+ Warrior(weapon: String, points: int, warriorEquipment: List&lt;String&gt;): Warrior&#10;+ doClone(): Warrior" style="text;strokeColor=none;fillColor=none;align=left;verticalAlign=top;spacingLeft=4;spacingRight=4;overflow=hidden;rotatable=0;points=[[0,0.5],[1,0.5]];portConstraint=eastwest;" vertex="1" parent="21"><mxGeometry y="26" width="440" height="54" as="geometry"/></mxCell><mxCell id="24" value="Extends" style="endArrow=block;endSize=16;endFill=0;html=1;rounded=0;exitX=1;exitY=0.25;exitDx=0;exitDy=0;entryX=0.005;entryY=0.063;entryDx=0;entryDy=0;entryPerimeter=0;" edge="1" parent="1" source="7" target="4"><mxGeometry width="160" relative="1" as="geometry"><mxPoint x="430" y="360" as="sourcePoint"/><mxPoint x="590" y="360" as="targetPoint"/><Array as="points"><mxPoint x="560" y="300"/><mxPoint x="560" y="390"/></Array></mxGeometry></mxCell><mxCell id="25" value="Extends" style="endArrow=block;endSize=16;endFill=0;html=1;rounded=0;exitX=1;exitY=0.25;exitDx=0;exitDy=0;entryX=0;entryY=0.5;entryDx=0;entryDy=0;" edge="1" parent="1" source="19" target="4"><mxGeometry x="-0.2526" y="17" width="160" relative="1" as="geometry"><mxPoint x="450" y="430" as="sourcePoint"/><mxPoint x="610" y="430" as="targetPoint"/><Array as="points"><mxPoint x="520" y="420"/><mxPoint x="560" y="420"/><mxPoint x="560" y="413"/></Array><mxPoint as="offset"/></mxGeometry></mxCell><mxCell id="26" value="Extends" style="endArrow=block;endSize=16;endFill=0;html=1;rounded=0;exitX=1;exitY=0.25;exitDx=0;exitDy=0;entryX=0;entryY=1;entryDx=0;entryDy=0;entryPerimeter=0;" edge="1" parent="1" source="21" target="4"><mxGeometry width="160" relative="1" as="geometry"><mxPoint x="460" y="480" as="sourcePoint"/><mxPoint x="620" y="480" as="targetPoint"/><Array as="points"><mxPoint x="520" y="540"/><mxPoint x="520" y="440"/></Array></mxGeometry></mxCell></root></mxGraphModel></diagram></mxfile>